<?xml version="1.0" standalone="no"?>
<!DOCTYPE svg PUBLIC "-//W3C//DTD SVG 20010904//EN"
 "http://www.w3.org/TR/2001/REC-SVG-20010904/DTD/svg10.dtd">
<svg version="1.0" xmlns="http://www.w3.org/2000/svg"
 width="500.000000pt" height="500.000000pt" viewBox="0 0 500.000000 500.000000"
 preserveAspectRatio="xMidYMid meet">
<metadata>
Created by potrace 1.14, written by Peter Selinger 2001-2017
</metadata>
<g transform="translate(0.000000,500.000000) scale(0.100000,-0.100000)"
fill="#000000" stroke="none">
<path d="M2566 4431 c-23 -25 -35 -81 -36 -154 l0 -58 -30 16 c-16 8 -55 15
-89 15 -56 0 -64 -3 -101 -36 -45 -41 -64 -94 -54 -152 14 -77 53 -126 111
-138 55 -11 94 5 151 63 30 30 55 53 57 51 1 -2 12 -22 24 -45 23 -47 60 -77
88 -71 26 5 22 31 -6 38 -16 4 -33 23 -52 60 -34 66 -35 76 -8 160 24 79 35
205 20 243 -13 33 -49 37 -75 8z m49 -41 c12 -39 -21 -213 -36 -188 -12 19
-11 166 1 189 14 24 27 24 35 -1z m-124 -191 c48 -24 74 -74 60 -112 -13 -34
-68 -95 -102 -113 -63 -32 -127 -5 -149 62 -42 127 72 224 191 163z"/>
<path d="M3154 4399 c-40 -11 -85 -62 -110 -122 -17 -41 -23 -46 -54 -49 -44
-4 -46 -22 -2 -26 l32 -3 0 -123 c0 -156 8 -216 28 -216 13 0 14 19 7 139 -4
77 -4 153 0 169 6 28 8 30 47 24 32 -4 40 -2 36 9 -3 8 -18 16 -34 19 -38 7
-42 35 -12 79 48 71 110 92 164 56 28 -18 31 -51 7 -77 -26 -29 -1 -46 26 -19
32 32 28 83 -10 115 -17 14 -36 26 -42 26 -7 0 -21 2 -32 4 -11 3 -34 0 -51
-5z"/>
<path d="M2015 4284 c-5 -1 -22 -5 -37 -8 -34 -8 -94 -59 -114 -97 -24 -47
-18 -133 11 -178 30 -44 55 -58 122 -66 106 -14 213 74 213 174 0 65 -23 105
-85 146 -21 15 -93 33 -110 29z m62 -45 c83 -31 125 -126 85 -191 -58 -94
-217 -104 -264 -18 -37 69 -17 139 54 190 43 32 78 37 125 19z"/>
<path d="M1240 4239 c-54 -21 -80 -27 -91 -20 -19 11 -39 -4 -39 -27 0 -8 -17
-30 -37 -48 -33 -28 -36 -33 -20 -39 12 -5 26 0 41 14 l23 21 12 -57 c7 -32
26 -89 42 -127 26 -63 27 -70 12 -81 -20 -15 -7 -38 17 -30 14 5 23 -2 36 -27
22 -45 63 -98 75 -98 15 0 10 36 -10 61 -18 24 -51 83 -51 93 0 3 18 11 40 17
37 11 51 31 32 43 -4 2 -26 -4 -49 -14 l-41 -18 -26 61 c-23 56 -30 80 -50
170 -6 27 -3 30 68 63 41 18 86 34 100 34 19 0 26 5 26 20 0 27 -20 25 -110
-11z"/>
<path d="M1533 4190 c-18 -11 -46 -38 -63 -61 -26 -36 -30 -51 -30 -104 0 -52
4 -67 30 -102 17 -23 44 -46 62 -52 124 -43 268 48 268 169 0 63 -22 103 -75
138 -40 26 -58 32 -104 32 -38 0 -66 -6 -88 -20z m166 -38 c67 -49 88 -122 50
-176 -47 -68 -136 -94 -213 -62 -40 17 -72 87 -62 136 8 41 49 94 89 114 38
20 100 14 136 -12z"/>
<path d="M3348 4200 c-56 -17 -89 -45 -114 -99 -21 -43 -25 -62 -19 -98 13
-89 105 -152 206 -140 99 12 159 78 159 174 -1 111 -122 196 -232 163z m128
-51 c65 -39 87 -134 48 -196 -35 -56 -144 -73 -208 -33 -49 30 -66 57 -66 105
0 109 133 182 226 124z"/>
<path d="M3720 4092 c0 -41 -4 -52 -23 -65 -63 -41 -114 -232 -69 -256 51 -27
86 28 112 177 8 40 19 80 25 89 15 20 104 29 134 14 12 -7 21 -21 21 -36 0
-29 19 -43 31 -24 18 29 9 59 -23 80 -28 17 -43 19 -100 15 l-67 -6 -3 27 c-2
17 -10 29 -20 31 -15 3 -18 -4 -18 -46z m-24 -163 c-9 -69 -36 -135 -47 -117
-5 7 -7 27 -4 43 6 32 45 125 53 125 3 0 2 -23 -2 -51z"/>
<path d="M989 3499 c-23 -23 -95 -148 -136 -236 -48 -104 -108 -290 -134 -413
-40 -197 -37 -489 7 -717 15 -75 18 -81 35 -70 10 6 24 24 30 39 8 19 19 28
33 27 48 -1 166 -27 188 -41 82 -54 132 -152 126 -250 l-3 -58 32 6 c40 8 97
-11 120 -39 10 -12 27 -24 38 -25 28 -5 30 -9 44 -74 12 -58 3 -130 -19 -143
-6 -3 -10 -10 -10 -16 0 -5 504 -9 1324 -9 l1325 0 15 22 c14 19 13 24 -5 49
-27 39 -56 106 -68 159 -8 38 -8 42 4 27 7 -10 16 -34 20 -54 7 -41 49 -128
65 -138 6 -4 -3 20 -19 52 -16 32 -32 74 -36 93 l-7 35 21 -19 c11 -11 21 -27
21 -36 0 -11 10 -20 25 -22 28 -6 32 3 10 22 -8 7 -13 16 -10 20 4 7 -107 99
-123 101 -26 2 -73 77 -72 116 1 10 10 -4 20 -31 11 -28 27 -57 36 -65 18 -17
18 -17 -14 50 -22 46 -20 89 4 89 7 0 15 -12 17 -27 l4 -28 2 28 c0 17 -5 30
-14 34 -14 5 -14 8 1 24 10 11 12 19 6 19 -7 0 -12 -4 -12 -10 0 -17 -27 -11
-34 8 -3 9 -9 23 -12 31 -4 9 -2 11 5 7 7 -5 9 -1 5 8 -3 9 -10 13 -15 10 -5
-3 -9 8 -9 25 0 16 4 33 10 36 6 3 10 -5 10 -19 0 -14 16 -43 38 -68 32 -38
41 -43 72 -40 33 3 36 1 35 -25 0 -18 5 -28 15 -28 9 0 14 7 12 18 -2 9 0 17
4 17 16 0 77 -55 114 -102 45 -56 55 -55 13 1 -62 83 -117 123 -182 132 l-46
6 43 2 c58 1 110 -27 166 -91 25 -29 46 -56 46 -60 0 -5 5 -8 10 -8 6 0 -1 17
-15 37 -18 27 -25 51 -25 83 0 42 3 47 43 72 23 15 54 39 67 55 28 30 19 26
-61 -35 l-44 -33 -10 32 c-6 17 -31 48 -55 69 l-44 37 80 6 c43 3 99 12 124
21 35 12 38 15 14 11 -18 -2 -43 -7 -58 -11 -40 -10 -31 7 29 51 29 22 59 51
67 64 9 16 12 69 11 185 -2 237 -33 417 -109 632 l-35 102 -42 6 c-23 4 -53 9
-67 12 -14 2 -19 1 -12 -2 9 -4 6 -14 -10 -37 -51 -74 -102 -127 -122 -128
-41 -2 37 -19 137 -30 53 -7 97 -15 97 -18 0 -3 -28 -31 -63 -62 -61 -55 -67
-65 -93 -157 -3 -9 -12 -11 -26 -6 l-23 6 22 -23 c11 -13 28 -42 37 -63 19
-45 14 -51 -46 -61 -21 -4 -36 -11 -32 -16 10 -17 -12 -9 -29 11 -9 11 -22 20
-28 20 -6 0 3 -15 21 -32 17 -18 40 -49 51 -69 10 -20 34 -54 54 -75 24 -25
32 -41 26 -47 -21 -21 -200 -20 -187 1 2 4 -14 7 -35 6 -29 0 -38 3 -35 12 3
7 0 11 -7 9 -7 -3 -32 23 -56 56 -39 54 -118 125 -128 116 -9 -9 10 -35 22
-31 36 14 153 -149 179 -252 10 -38 30 -93 44 -122 14 -28 23 -55 20 -58 -8
-7 -42 11 -103 56 -27 20 -59 40 -70 44 -46 17 -114 24 -141 16 -28 -8 -28 -8
11 -9 l39 -1 -39 -41 c-22 -22 -70 -68 -107 -101 l-67 -59 -34 25 c-61 47 -50
27 15 -25 35 -28 83 -60 108 -71 111 -47 114 -49 99 -59 -24 -15 -80 -10 -174
16 -159 45 -354 43 -462 -5 -44 -19 -57 -32 -25 -24 10 3 40 -13 72 -37 30
-23 73 -50 95 -60 41 -18 167 -39 236 -39 69 0 42 -16 -64 -38 -136 -29 -213
-55 -317 -107 -133 -67 -171 -75 -354 -76 l-161 -1 80 -19 c114 -28 225 -28
298 1 76 29 70 35 -8 8 -64 -22 -169 -26 -235 -10 -27 7 -10 9 70 9 123 -1
181 13 314 79 l91 45 -40 -35 c-63 -55 -205 -134 -264 -148 -42 -9 -75 -9
-155 1 -99 12 -365 73 -395 91 -27 16 108 11 169 -5 64 -17 82 -18 58 -4 -25
14 -22 26 10 44 20 11 21 14 6 10 -42 -11 -190 -25 -267 -25 -68 0 -120 13
-146 36 -2 2 23 31 57 63 51 51 68 61 109 67 26 4 43 9 36 11 -6 2 -60 -5
-120 -16 -59 -12 -138 -21 -175 -21 l-66 0 -13 38 c-7 21 -15 119 -19 227 -4
105 -8 172 -9 150 l-2 -40 -20 25 c-29 35 -70 106 -85 148 -7 21 -13 30 -14
21 0 -9 6 -32 14 -50 16 -37 6 -68 -31 -102 -19 -17 -22 -16 -71 45 -92 113
-94 114 -83 93 32 -65 172 -205 204 -205 7 0 -3 9 -20 20 -18 11 -33 23 -33
27 1 5 13 22 28 40 l28 32 42 -57 42 -57 -37 -6 -38 -6 38 -2 c20 0 37 -5 37
-10 0 -14 -34 -23 -56 -15 -14 4 -16 3 -5 -4 10 -7 7 -12 -15 -20 -16 -6 -23
-11 -16 -11 7 -1 29 6 49 14 19 8 37 15 39 15 2 0 4 -18 4 -41 0 -46 -5 -46
-86 -8 -22 10 -51 18 -65 18 l-24 -1 25 -7 c14 -3 53 -17 88 -30 60 -23 62
-25 62 -60 0 -20 3 -46 6 -57 8 -31 -11 -36 -176 -44 -92 -5 -175 -16 -227
-29 -81 -21 -147 -26 -177 -15 -28 11 -17 49 30 110 25 32 57 80 70 106 13 25
32 49 41 52 14 4 14 4 -2 3 -13 -1 -30 -21 -48 -54 l-28 -52 -77 33 c-53 23
-77 39 -76 50 1 9 -2 13 -7 10 -23 -14 -3 -34 61 -63 39 -17 75 -31 81 -31 14
0 7 -21 -12 -33 -20 -13 -103 38 -143 87 l-31 38 36 32 37 31 -49 28 c-27 15
-49 31 -49 36 0 4 24 11 54 14 70 7 107 27 184 98 34 32 76 66 92 74 17 9 30
18 30 21 0 3 -17 -4 -37 -16 l-37 -22 -20 24 c-31 37 -98 188 -92 205 7 18 16
17 211 -16 108 -19 292 -29 223 -12 -19 4 -44 32 -92 105 -42 63 -63 103 -57
109 15 15 348 -11 402 -32 25 -9 25 -9 15 25 -6 19 -15 34 -20 34 -4 0 -5 -7
-2 -16 4 -9 -22 12 -56 47 -34 35 -53 53 -42 40 l19 -25 -32 23 c-18 12 -36
27 -40 34 -4 7 2 5 13 -3 12 -9 11 -5 -5 13 -25 28 -43 38 -21 12 7 -8 8 -15
2 -15 -15 0 -35 28 -29 43 9 24 80 39 212 44 147 6 228 -6 272 -40 27 -21 27
-21 -4 18 -34 41 -42 62 -20 49 7 -4 9 -3 4 2 -5 5 -14 9 -20 9 -7 1 -11 7 -9
15 2 8 0 12 -4 8 -8 -9 -34 9 -34 23 0 5 36 -9 80 -31 63 -32 99 -43 163 -50
45 -6 93 -13 106 -16 l25 -5 -30 -25 c-21 -19 -17 -17 18 6 27 17 48 32 48 33
0 1 -26 3 -57 4 -32 2 -60 8 -65 15 -11 19 -10 30 4 22 7 -5 8 -3 4 5 -5 7
-11 10 -14 7 -7 -7 -32 13 -32 26 0 6 8 4 18 -3 15 -13 16 -12 3 3 -7 10 -17
16 -21 13 -11 -7 -63 52 -56 63 3 5 -6 27 -20 47 l-25 38 23 -7 c13 -3 59 -11
103 -17 94 -13 169 -33 202 -54 23 -15 25 -14 76 38 29 30 68 83 87 118 19 34
40 64 45 66 6 2 19 -22 28 -54 16 -52 16 -57 2 -66 -14 -8 -14 -12 4 -43 l20
-34 -100 -50 -100 -51 -28 20 c-35 25 -48 15 -20 -15 l21 -22 -46 -27 c-25
-15 -46 -29 -46 -32 0 -2 24 9 53 27 137 81 294 154 347 161 54 7 54 8 -13 4
-65 -3 -68 -2 -82 25 -13 26 -13 29 3 34 37 11 177 26 243 26 l69 0 1 -42 c1
-32 4 -23 10 31 5 41 13 79 19 85 6 6 44 -7 107 -36 121 -56 138 -62 241 -92
45 -13 82 -20 82 -16 0 10 108 36 116 28 3 -3 -8 -30 -25 -59 -16 -30 -35 -76
-42 -103 -12 -48 -12 -48 -48 -43 -20 3 -47 8 -61 11 -14 3 13 -7 60 -22 70
-23 85 -32 91 -52 l7 -25 1 27 c1 22 -5 29 -24 34 -14 3 -25 9 -25 13 0 14
125 51 175 53 l50 1 -44 4 -44 4 6 67 c7 66 33 172 43 172 3 0 15 -5 27 -10
17 -8 17 -7 -3 7 -46 32 -88 82 -112 133 l-24 50 -951 3 c-527 1 -949 -2 -946
-7 3 -4 -4 -5 -16 -1 -16 5 -23 1 -31 -19 -5 -14 -16 -26 -24 -26 -23 0 -28
18 -9 29 25 14 10 14 -22 -1 -20 -9 -26 -18 -22 -35 5 -26 -10 -32 -19 -8 -4
8 -1 22 6 30 11 13 7 13 -30 0 -51 -18 -47 -18 -47 0 0 8 3 13 5 10 3 -3 11 0
19 6 7 7 28 9 49 6 25 -4 34 -2 31 6 -6 19 -123 21 -149 2 -19 -12 -19 -15 -5
-15 20 0 23 -16 5 -23 -10 -4 -10 -6 0 -6 6 -1 12 -6 12 -11 0 -6 -6 -10 -12
-9 -24 3 -53 -3 -41 -8 8 -3 -5 -26 -39 -64 -54 -63 -74 -74 -64 -36 3 14 -1
32 -9 43 -20 27 -18 57 5 82 28 30 33 28 15 -7 -9 -18 -12 -41 -9 -60 6 -29 7
-30 33 -16 32 16 54 41 57 63 2 8 8 18 14 22 8 5 8 15 0 34 l-10 27 -252 -3
c-219 -3 -255 -5 -269 -19z m526 -19 c3 -5 -1 -10 -9 -10 -8 0 -18 5 -21 10
-3 6 1 10 9 10 8 0 18 -4 21 -10z m72 -12 c-3 -8 -6 -5 -6 6 -1 11 2 17 5 13
3 -3 4 -12 1 -19z m-101 -203 c9 -13 14 -30 11 -37 -4 -9 -6 -8 -6 3 -1 8 -13
26 -27 40 -21 18 -25 20 -17 5 14 -25 -3 -79 -34 -108 -24 -22 -24 -22 3 25
22 41 25 52 15 73 -23 52 21 50 55 -1z m784 -85 c6 -11 8 -20 6 -20 -3 0 -10
9 -16 20 -6 11 -8 20 -6 20 3 0 10 -9 16 -20z m345 -98 c-3 -3 -16 5 -28 17
l-22 23 28 -17 c15 -10 25 -20 22 -23z m-1425 -397 c26 -9 58 -27 70 -40 l23
-25 -26 0 c-15 0 -41 9 -59 20 -23 14 -51 20 -93 20 -34 0 -66 5 -72 11 -7 7
-9 4 -6 -14 4 -19 -6 -33 -47 -70 -43 -39 -55 -45 -67 -35 -12 10 -9 15 19 29
19 10 39 24 46 31 16 20 33 68 23 68 -5 0 -11 -9 -14 -20 -3 -14 -14 -20 -31
-20 -22 0 -26 5 -26 28 l0 27 107 3 c76 2 119 -2 153 -13z m2995 -397 c-21
-93 -34 -108 -95 -108 -41 0 -49 3 -53 22 -4 15 0 26 16 37 12 8 49 41 82 72
33 32 61 56 63 54 2 -2 -4 -37 -13 -77z m-584 -2 c-6 -8 -21 -16 -32 -19 -20
-5 -20 -5 -3 14 20 23 54 28 35 5z m9 -64 c18 -66 7 -80 -34 -44 -16 13 -18
13 -8 1 6 -9 8 -19 4 -23 -4 -4 -2 -7 3 -6 21 5 36 0 30 -10 -9 -15 -35 0 -51
32 -11 21 -12 33 -5 42 6 7 8 16 5 19 -4 3 -45 -32 -92 -78 -48 -46 -90 -81
-95 -78 -5 3 30 45 78 93 73 73 92 87 120 88 31 1 35 -2 45 -36z m-2750 -21
c0 -3 -11 -11 -25 -18 -22 -10 -25 -9 -25 6 0 10 3 20 6 23 7 7 44 -2 44 -11z
m3164 7 c3 -7 7 -25 10 -39 5 -23 3 -26 -17 -22 -19 4 -22 10 -19 39 4 34 19
46 26 22z m-3065 -19 c17 -6 31 -15 31 -21 0 -6 -7 -7 -17 -3 -10 4 -34 14
-53 21 -44 16 -8 19 39 3z m2873 -25 c5 -3 2 -16 -6 -30 -20 -30 -20 -83 0
-112 15 -22 15 -22 -39 -22 -63 0 -141 21 -168 46 -31 28 -18 94 25 127 12 9
172 1 188 -9z m58 -1 c0 -5 -11 -13 -25 -20 -27 -12 -33 -5 -13 15 13 13 38
16 38 5z m64 -22 c-37 -22 -64 -58 -64 -83 0 -27 -19 -21 -31 9 -14 37 -4 73
21 73 11 0 20 5 20 10 0 6 19 10 43 10 l42 0 -31 -19z m31 -11 c-3 -5 -12 -10
-19 -10 -19 0 -43 -31 -54 -70 -8 -29 -10 -31 -11 -10 0 33 21 70 50 86 29 16
42 18 34 4z m60 -34 c7 -32 6 -40 -8 -47 -21 -12 -22 -29 -2 -29 8 0 15 -4 15
-9 0 -5 -15 -4 -35 2 -33 10 -35 12 -35 57 0 77 47 97 65 26z m44 13 c30 -28
41 -60 41 -120 0 -70 -17 -53 -22 22 -4 52 -9 66 -31 85 -15 13 -27 26 -27 29
0 11 17 4 39 -16z m-119 -28 c0 -16 -7 -37 -16 -45 -34 -35 -46 -7 -19 44 20
38 35 38 35 1z m116 -16 c7 -19 14 -49 14 -67 l0 -33 -20 25 c-18 23 -29 110
-14 110 3 0 12 -16 20 -35z m-867 -61 c38 -8 37 -9 -60 -95 l-68 -60 -52 26
c-57 28 -129 82 -129 95 0 8 67 24 135 33 53 7 141 7 174 1z m71 -11 c0 -17
-136 -143 -154 -143 -16 0 -2 18 54 75 66 67 100 90 100 68z m491 -3 c46 0 60
-4 68 -18 6 -12 6 -23 -1 -33 -8 -11 -9 -10 -4 6 l6 20 -16 -20 c-11 -14 -14
-32 -10 -62 5 -41 4 -44 -32 -68 -43 -28 -115 -55 -148 -55 -20 0 -24 5 -25
33 l-1 32 -7 -30 c-5 -21 -12 -30 -25 -28 -10 0 -36 -12 -58 -27 -40 -29 -105
-56 -114 -47 -3 3 11 15 30 27 20 12 49 37 65 57 20 24 33 33 43 27 11 -6 11
-5 -1 9 -8 10 -10 24 -6 34 5 10 7 24 6 31 -3 19 24 53 72 90 32 25 49 31 71
27 16 -3 55 -5 87 -5z m-2001 -141 c0 -11 5 -29 11 -41 6 -11 9 -22 6 -24 -2
-2 -43 10 -91 27 -48 17 -90 29 -92 26 -5 -5 279 -107 299 -107 26 -1 54 -25
48 -41 -5 -14 -40 -6 -256 65 -276 91 -278 93 -85 95 47 1 99 5 115 10 43 13
45 13 45 -10z m2108 -100 c-26 -6 -38 9 -17 22 10 6 11 9 2 9 -7 0 -13 5 -13
12 0 6 12 1 26 -13 l26 -24 -24 -6z m-1837 22 c-6 -10 -22 -26 -37 -36 -27
-17 -30 -17 -98 6 l-71 23 89 8 c49 4 91 10 94 13 3 3 11 5 19 5 10 0 11 -5 4
-19z m1865 -43 c4 -6 2 -14 -5 -16 -7 -2 -47 -33 -88 -67 -93 -77 -147 -97
-258 -93 -50 2 -80 7 -82 15 -3 8 3 10 19 6 13 -3 49 -8 82 -10 86 -7 132 14
220 103 71 72 97 86 112 62z m-540 -65 c-14 -14 -29 -24 -32 -21 -5 5 43 48
54 48 2 0 -7 -12 -22 -27z m-1037 -37 c-2 -2 -20 -1 -39 2 l-35 6 35 6 c30 4
51 -3 39 -14z"/>
<path d="M3571 1857 c2 -1 13 -9 24 -17 19 -14 19 -14 6 3 -7 9 -18 17 -24 17
-6 0 -8 -1 -6 -3z"/>
<path d="M2978 3193 c6 -2 18 -2 25 0 6 3 1 5 -13 5 -14 0 -19 -2 -12 -5z"/>
<path d="M3552 3149 c-18 -27 -30 -49 -28 -49 7 0 69 91 64 95 -1 2 -18 -19
-36 -46z"/>
<path d="M3040 3180 c14 -4 34 -8 45 -8 16 0 15 2 -5 8 -14 4 -34 8 -45 8 -16
0 -15 -2 5 -8z"/>
<path d="M3119 3161 c7 -5 10 -14 7 -20 -4 -6 -2 -11 3 -11 6 0 11 9 11 20 0
12 -7 20 -17 20 -14 0 -15 -2 -4 -9z"/>
<path d="M3013 3153 c9 -2 25 -2 35 0 9 3 1 5 -18 5 -19 0 -27 -2 -17 -5z"/>
<path d="M2908 3143 c18 -2 45 -2 60 0 15 2 0 4 -33 4 -33 0 -45 -2 -27 -4z"/>
<path d="M2310 3136 c0 -2 8 -10 18 -17 15 -13 16 -12 3 4 -13 16 -21 21 -21
13z"/>
<path d="M2848 3133 c7 -3 16 -2 19 1 4 3 -2 6 -13 5 -11 0 -14 -3 -6 -6z"/>
<path d="M2788 3123 c6 -2 18 -2 25 0 6 3 1 5 -13 5 -14 0 -19 -2 -12 -5z"/>
<path d="M2730 3110 c-8 -5 -10 -10 -5 -10 6 0 17 5 25 10 8 5 11 10 5 10 -5
0 -17 -5 -25 -10z"/>
<path d="M2893 3105 c0 -8 4 -15 9 -15 4 0 8 4 8 9 0 6 -4 12 -8 15 -5 3 -9
-1 -9 -9z"/>
<path d="M3068 3113 c6 -2 18 -2 25 0 6 3 1 5 -13 5 -14 0 -19 -2 -12 -5z"/>
<path d="M3466 3070 c-21 -16 -40 -31 -42 -33 -2 -1 13 -1 34 1 30 4 33 6 17
13 -18 7 -18 8 4 8 13 1 21 4 18 8 -4 3 -2 12 4 20 17 20 8 16 -35 -17z"/>
<path d="M2635 3064 c-16 -8 -34 -20 -40 -26 -5 -5 9 0 33 12 23 12 42 24 42
26 0 6 -2 5 -35 -12z"/>
<path d="M3038 3043 c7 -3 16 -2 19 1 4 3 -2 6 -13 5 -11 0 -14 -3 -6 -6z"/>
<path d="M3508 3033 c7 -3 16 -2 19 1 4 3 -2 6 -13 5 -11 0 -14 -3 -6 -6z"/>
<path d="M2715 3020 c-3 -6 1 -7 9 -4 18 7 21 14 7 14 -6 0 -13 -4 -16 -10z"/>
<path d="M2793 3023 c9 -2 25 -2 35 0 9 3 1 5 -18 5 -19 0 -27 -2 -17 -5z"/>
<path d="M3395 3019 c-4 -6 -5 -12 -2 -15 2 -3 7 2 10 11 7 17 1 20 -8 4z"/>
<path d="M3547 3019 c7 -7 15 -10 18 -7 3 3 -2 9 -12 12 -14 6 -15 5 -6 -5z"/>
<path d="M2529 2993 l-24 -28 28 24 c25 23 32 31 24 31 -2 0 -14 -12 -28 -27z"/>
<path d="M3137 2999 c7 -7 15 -10 18 -7 3 3 -2 9 -12 12 -14 6 -15 5 -6 -5z"/>
<path d="M3344 2979 c-16 -17 -38 -34 -48 -38 -18 -7 -18 -8 3 -14 13 -3 20
-3 17 1 -4 3 10 23 31 44 20 21 35 38 32 38 -3 0 -18 -14 -35 -31z"/>
<path d="M3598 3000 c12 -5 22 -14 22 -19 0 -13 -153 -133 -275 -216 -105 -72
-136 -95 -97 -76 85 44 382 273 382 295 0 14 -22 27 -43 25 -7 0 -2 -4 11 -9z"/>
<path d="M3213 2968 c11 -10 27 -18 36 -17 10 0 7 4 -8 10 -14 5 -30 13 -36
17 -6 4 -2 -1 8 -10z"/>
<path d="M1773 2964 c-3 -8 -1 -20 5 -26 8 -8 9 -5 6 10 -4 14 0 22 13 25 17
4 17 5 0 6 -10 0 -20 -6 -24 -15z"/>
<path d="M1843 2973 c9 -2 25 -2 35 0 9 3 1 5 -18 5 -19 0 -27 -2 -17 -5z"/>
<path d="M2210 2976 c0 -3 20 -19 45 -36 25 -17 43 -35 40 -40 -3 -4 2 -11 11
-14 24 -9 25 -8 6 15 -18 22 -102 84 -102 75z"/>
<path d="M1943 2963 c9 -2 23 -2 30 0 6 3 -1 5 -18 5 -16 0 -22 -2 -12 -5z"/>
<path d="M2479 2953 c-13 -16 -12 -17 4 -4 9 7 17 15 17 17 0 8 -8 3 -21 -13z"/>
<path d="M2003 2953 c9 -2 25 -2 35 0 9 3 1 5 -18 5 -19 0 -27 -2 -17 -5z"/>
<path d="M2564 2938 l-19 -23 23 19 c21 18 27 26 19 26 -2 0 -12 -10 -23 -22z"/>
<path d="M2778 2953 c7 -3 16 -2 19 1 4 3 -2 6 -13 5 -11 0 -14 -3 -6 -6z"/>
<path d="M2933 2953 c9 -2 23 -2 30 0 6 3 -1 5 -18 5 -16 0 -22 -2 -12 -5z"/>
<path d="M2073 2943 c9 -2 23 -2 30 0 6 3 -1 5 -18 5 -16 0 -22 -2 -12 -5z"/>
<path d="M2217 2938 c7 -8 10 -17 7 -20 -3 -3 7 -9 22 -12 38 -10 37 -4 -4 23
-20 14 -31 18 -25 9z"/>
<path d="M2889 2933 c-13 -16 -12 -17 4 -4 16 13 21 21 13 21 -2 0 -10 -8 -17
-17z"/>
<path d="M3660 2914 c-20 -58 -111 -149 -283 -281 -158 -122 -207 -147 -207
-105 0 20 -18 42 -34 42 -6 0 -3 -5 7 -11 22 -13 22 -43 -3 -115 -23 -65 -73
-124 -133 -155 -60 -31 -113 -85 -136 -138 -14 -34 -35 -60 -68 -84 -27 -20
-69 -58 -94 -85 -50 -53 -89 -67 -150 -56 -58 12 -206 73 -262 108 -89 56
-201 115 -258 135 -30 10 -77 30 -104 44 -68 34 -133 53 -145 41 -5 -5 4 -9
23 -10 18 0 73 -19 122 -41 50 -23 101 -44 115 -48 32 -9 179 -88 245 -131 28
-18 82 -45 120 -59 39 -15 85 -36 104 -48 31 -18 32 -21 15 -28 -10 -4 -35 -9
-54 -10 -28 -1 -23 -3 20 -8 55 -7 198 10 170 20 -12 5 -6 17 24 55 65 81 150
152 161 134 3 -5 12 -10 18 -9 9 0 9 2 0 5 -15 7 -8 46 18 95 19 37 81 92 124
109 52 20 88 39 65 34 -23 -6 -22 -4 10 25 19 16 39 30 43 31 5 0 6 4 3 9 -3
5 0 26 8 47 12 36 17 40 58 46 59 8 137 58 233 150 67 63 79 70 96 60 10 -7
22 -12 26 -12 5 0 2 4 -6 9 -37 24 -14 74 73 160 40 39 59 52 73 47 13 -5 12
-1 -5 12 -15 12 -21 24 -16 35 3 9 4 17 1 17 -3 0 -11 -16 -17 -36z m-135
-204 c3 -5 -2 -10 -11 -10 -10 0 -40 -24 -68 -53 -63 -67 -128 -118 -183 -146
-44 -22 -93 -28 -93 -11 0 6 11 10 24 10 20 0 161 97 276 192 38 30 46 33 55
18z m-867 -800 c-7 -11 -28 -23 -48 -26 -19 -3 -44 -8 -55 -11 -16 -3 -17 -2
-6 6 12 8 12 12 2 24 -10 13 -7 15 26 10 21 -2 49 0 63 6 14 5 26 10 28 10 1
1 -3 -8 -10 -19z"/>
<path d="M2133 2933 c9 -2 23 -2 30 0 6 3 -1 5 -18 5 -16 0 -22 -2 -12 -5z"/>
<path d="M2377 2922 c-10 -10 -17 -23 -17 -29 0 -6 -5 -13 -10 -15 -6 -2 -1
-9 10 -16 19 -12 20 -11 14 13 -4 18 -1 32 11 45 10 11 16 20 13 20 -3 0 -12
-8 -21 -18z"/>
<path d="M2188 2923 c7 -3 16 -2 19 1 4 3 -2 6 -13 5 -11 0 -14 -3 -6 -6z"/>
<path d="M2456 2914 c-4 -10 -13 -14 -24 -10 -14 5 -14 3 2 -9 11 -8 27 -15
35 -15 12 0 13 2 3 8 -7 5 -10 16 -6 25 3 9 4 17 1 17 -3 0 -8 -7 -11 -16z"/>
<path d="M2748 2893 c7 -3 16 -2 19 1 4 3 -2 6 -13 5 -11 0 -14 -3 -6 -6z"/>
<path d="M3008 2893 c6 -2 18 -2 25 0 6 3 1 5 -13 5 -14 0 -19 -2 -12 -5z"/>
<path d="M3228 2883 c7 -3 16 -2 19 1 4 3 -2 6 -13 5 -11 0 -14 -3 -6 -6z"/>
<path d="M2500 2870 c8 -5 22 -9 30 -9 10 0 8 3 -5 9 -27 12 -43 12 -25 0z"/>
<path d="M3750 2860 c19 -11 42 -19 50 -19 8 0 -5 8 -29 19 -55 25 -67 25 -21
0z"/>
<path d="M1841 2854 c6 -7 16 -11 21 -8 11 7 3 17 -18 20 -12 2 -13 -1 -3 -12z"/>
<path d="M2838 2863 c6 -2 18 -2 25 0 6 3 1 5 -13 5 -14 0 -19 -2 -12 -5z"/>
<path d="M2560 2850 c12 -8 10 -10 -10 -11 -21 -1 -22 -2 -5 -6 11 -3 26 -10
33 -15 8 -7 12 -7 12 0 0 6 -6 13 -12 16 -7 3 3 4 22 1 l35 -5 -35 14 c-41 17
-61 20 -40 6z"/>
<path d="M3218 2843 c6 -2 18 -2 25 0 6 3 1 5 -13 5 -14 0 -19 -2 -12 -5z"/>
<path d="M1866 2831 c-4 -5 -2 -12 3 -15 5 -4 12 -2 15 3 4 5 2 12 -3 15 -5 4
-12 2 -15 -3z"/>
<path d="M2470 2820 c-11 -8 -7 -9 15 -4 37 8 45 14 19 14 -10 0 -26 -5 -34
-10z"/>
<path d="M2685 2810 c28 -10 57 -18 65 -18 8 0 -7 8 -35 18 -27 10 -57 18 -65
18 -8 0 8 -8 35 -18z"/>
<path d="M3858 2823 c7 -3 16 -2 19 1 4 3 -2 6 -13 5 -11 0 -14 -3 -6 -6z"/>
<path d="M2393 2802 c2 -26 4 -26 37 -6 25 15 25 15 1 8 -15 -4 -27 -1 -32 7
-6 10 -8 7 -6 -9z"/>
<path d="M2591 2790 c0 -8 4 -22 9 -30 12 -18 12 -2 0 25 -6 13 -9 15 -9 5z"/>
<path d="M2785 2780 c11 -5 27 -9 35 -9 9 0 8 4 -5 9 -11 5 -27 9 -35 9 -9 0
-8 -4 5 -9z"/>
<path d="M2258 2773 c12 -2 32 -2 45 0 12 2 2 4 -23 4 -25 0 -35 -2 -22 -4z"/>
<path d="M2354 2769 c-7 -11 -6 -11 93 -13 45 0 79 2 75 5 -11 10 -162 17
-168 8z"/>
<path d="M2205 2760 c-3 -6 1 -7 9 -4 18 7 21 14 7 14 -6 0 -13 -4 -16 -10z"/>
<path d="M2855 2760 c11 -5 27 -9 35 -9 9 0 8 4 -5 9 -11 5 -27 9 -35 9 -9 0
-8 -4 5 -9z"/>
<path d="M2143 2726 c-23 -14 -50 -26 -60 -29 -14 -4 -13 -5 5 -6 12 0 39 6
60 15 20 9 57 20 82 24 l45 9 -47 -3 c-26 -2 -45 0 -42 5 8 13 4 11 -43 -15z"/>
<path d="M2290 2740 c-11 -7 -5 -8 20 -4 43 8 51 14 19 14 -13 0 -31 -5 -39
-10z"/>
<path d="M2540 2746 c0 -2 9 -6 20 -9 11 -3 18 -1 14 4 -5 9 -34 13 -34 5z"/>
<path d="M2925 2740 c11 -5 27 -9 35 -9 9 0 8 4 -5 9 -11 5 -27 9 -35 9 -9 0
-8 -4 5 -9z"/>
<path d="M2459 2723 c-13 -16 -12 -17 4 -4 9 7 17 15 17 17 0 8 -8 3 -21 -13z"/>
<path d="M3123 2733 c9 -2 23 -2 30 0 6 3 -1 5 -18 5 -16 0 -22 -2 -12 -5z"/>
<path d="M1921 2725 c1 -19 18 -51 18 -35 0 8 -4 22 -9 30 -5 8 -9 11 -9 5z"/>
<path d="M2660 2721 c19 -4 49 -15 67 -24 48 -25 53 -20 8 8 -24 14 -54 24
-75 24 l-35 -1 35 -7z"/>
<path d="M2988 2723 c7 -3 16 -2 19 1 4 3 -2 6 -13 5 -11 0 -14 -3 -6 -6z"/>
<path d="M3720 2720 c-13 -8 -12 -10 3 -10 9 0 17 5 17 10 0 12 -1 12 -20 0z"/>
<path d="M3035 2710 c11 -5 27 -9 35 -9 9 0 8 4 -5 9 -11 5 -27 9 -35 9 -9 0
-8 -4 5 -9z"/>
<path d="M3633 2703 c9 -2 23 -2 30 0 6 3 -1 5 -18 5 -16 0 -22 -2 -12 -5z"/>
<path d="M3098 2693 c7 -3 16 -2 19 1 4 3 -2 6 -13 5 -11 0 -14 -3 -6 -6z"/>
<path d="M3569 2687 c5 -5 17 -5 28 2 16 9 15 10 -9 9 -16 -2 -24 -6 -19 -11z"/>
<path d="M3810 2690 c8 -5 20 -10 25 -10 6 0 3 5 -5 10 -8 5 -19 10 -25 10 -5
0 -3 -5 5 -10z"/>
<path d="M2028 2683 c6 -2 18 -2 25 0 6 3 1 5 -13 5 -14 0 -19 -2 -12 -5z"/>
<path d="M3138 2683 c7 -3 16 -2 19 1 4 3 -2 6 -13 5 -11 0 -14 -3 -6 -6z"/>
<path d="M3908 2683 c7 -3 16 -2 19 1 4 3 -2 6 -13 5 -11 0 -14 -3 -6 -6z"/>
<path d="M1970 2673 c-29 -6 -50 -21 -50 -36 0 -5 8 -3 18 6 10 10 25 17 33
17 8 0 21 5 29 10 16 10 12 10 -30 3z"/>
<path d="M2812 2635 c20 -28 44 -49 65 -56 19 -6 36 -9 39 -7 2 3 -13 10 -34
16 -24 7 -44 22 -55 42 -10 16 -14 30 -9 30 5 0 59 -16 121 -36 62 -19 115
-34 117 -31 4 3 -253 87 -268 87 -4 0 7 -20 24 -45z"/>
<path d="M3183 2673 c9 -2 23 -2 30 0 6 3 -1 5 -18 5 -16 0 -22 -2 -12 -5z"/>
<path d="M2146 2662 c-3 -6 -1 -14 5 -17 15 -10 25 3 12 16 -7 7 -13 7 -17 1z"/>
<path d="M2548 2663 c7 -3 16 -2 19 1 4 3 -2 6 -13 5 -11 0 -14 -3 -6 -6z"/>
<path d="M1865 2650 c-3 -6 1 -7 9 -4 18 7 21 14 7 14 -6 0 -13 -4 -16 -10z"/>
<path d="M3196 2584 c-3 -26 -4 -49 -2 -52 3 -2 8 17 11 43 4 25 5 48 3 51 -3
2 -8 -17 -12 -42z"/>
<path d="M1765 2605 c-16 -8 -23 -14 -15 -14 8 0 26 6 40 14 32 18 15 18 -25
0z"/>
<path d="M1865 2581 c-10 -23 -34 -51 -56 -66 -22 -14 -39 -28 -39 -31 0 -3
26 13 58 35 32 23 63 41 70 41 7 0 12 5 12 10 0 7 -6 7 -20 0 -23 -12 -25 -7
-9 22 6 11 9 22 6 24 -2 2 -12 -14 -22 -35z"/>
<path d="M1911 2604 c0 -11 3 -14 6 -6 3 7 2 16 -1 19 -3 4 -6 -2 -5 -13z"/>
<path d="M2688 2613 c6 -2 18 -2 25 0 6 3 1 5 -13 5 -14 0 -19 -2 -12 -5z"/>
<path d="M1690 2580 c-21 -7 -21 -8 -5 -9 11 0 27 4 35 9 18 11 5 11 -30 0z"/>
<path d="M2268 2583 c6 -2 18 -2 25 0 6 3 1 5 -13 5 -14 0 -19 -2 -12 -5z"/>
<path d="M3080 2580 c8 -5 22 -9 30 -9 10 0 8 3 -5 9 -27 12 -43 12 -25 0z"/>
<path d="M2080 2570 c-9 -6 -10 -10 -3 -10 6 0 15 5 18 10 8 12 4 12 -15 0z"/>
<path d="M2845 2550 c10 -11 20 -20 23 -20 3 0 -3 9 -13 20 -10 11 -20 20 -23
20 -3 0 3 -9 13 -20z"/>
<path d="M2957 2554 c28 -12 92 -80 82 -88 -2 -1 -85 -72 -184 -157 -99 -85
-188 -160 -198 -168 -10 -8 -39 -14 -65 -14 l-47 1 38 -9 c26 -6 45 -5 60 3
21 10 351 288 441 370 35 31 39 39 27 50 -10 9 -12 9 -7 1 6 -12 -37 -63 -53
-63 -4 0 -15 14 -24 30 -18 30 -64 61 -89 59 -7 0 1 -7 19 -15z"/>
<path d="M3591 2554 c0 -11 3 -14 6 -6 3 7 2 16 -1 19 -3 4 -6 -2 -5 -13z"/>
<path d="M2530 2556 c0 -2 13 -6 29 -8 17 -2 28 -1 25 4 -5 8 -54 12 -54 4z"/>
<path d="M1882 2525 c-7 -14 -12 -30 -12 -35 0 -5 -13 -22 -30 -38 -16 -17
-30 -36 -30 -44 0 -7 9 1 19 18 11 18 25 34 31 36 7 2 18 21 26 43 15 45 13
57 -4 20z"/>
<path d="M2290 2539 c14 -6 39 -22 55 -37 17 -15 14 -10 -7 11 -20 20 -45 37
-55 36 -13 0 -11 -3 7 -10z"/>
<path d="M2739 2523 c-13 -17 -13 -17 6 -3 11 8 22 16 24 17 2 2 0 3 -6 3 -6
0 -17 -8 -24 -17z"/>
<path d="M3601 2514 c0 -11 3 -14 6 -6 3 7 2 16 -1 19 -3 4 -6 -2 -5 -13z"/>
<path d="M2946 2488 c10 -14 21 -24 23 -22 3 3 -6 15 -18 27 l-24 22 19 -27z"/>
<path d="M2043 2493 c15 -2 37 -2 50 0 12 2 0 4 -28 4 -27 0 -38 -2 -22 -4z"/>
<path d="M1710 2444 c-25 -20 -49 -43 -54 -52 -5 -9 13 3 40 27 27 24 53 48
59 53 25 22 -5 4 -45 -28z"/>
<path d="M2779 2463 c-13 -17 -13 -17 6 -3 11 8 22 16 24 17 2 2 0 3 -6 3 -6
0 -17 -8 -24 -17z"/>
<path d="M3550 2470 c-8 -5 -10 -10 -5 -10 6 0 17 5 25 10 8 5 11 10 5 10 -5
0 -17 -5 -25 -10z"/>
<path d="M3575 2455 c-16 -7 -23 -14 -14 -14 8 -1 24 6 35 14 24 18 18 18 -21
0z"/>
<path d="M3510 2450 c-13 -9 -13 -10 0 -10 24 -1 -60 -42 -115 -56 l-50 -13
50 6 c44 5 170 63 137 63 -7 0 -10 5 -7 10 8 12 4 12 -15 0z"/>
<path d="M3883 2453 c15 -2 37 -2 50 0 12 2 0 4 -28 4 -27 0 -38 -2 -22 -4z"/>
<path d="M2222 2420 c9 -14 24 -26 34 -27 13 -2 14 -1 4 3 -8 4 -23 16 -34 28
l-18 21 14 -25z"/>
<path d="M1410 2413 c8 -3 26 -17 39 -31 l23 -27 -18 33 c-12 20 -26 32 -39
31 -14 0 -15 -2 -5 -6z"/>
<path d="M1713 2395 c-3 -9 -3 -18 0 -21 3 -3 95 -32 204 -64 109 -31 274 -81
366 -110 93 -28 170 -50 173 -48 4 4 -339 113 -499 159 l-79 23 24 19 23 19
-28 -16 c-38 -23 -87 -13 -88 17 -1 17 -2 18 -6 5 -5 -20 -20 -22 -57 -8 -17
6 -24 14 -20 25 3 8 3 15 0 15 -4 0 -9 -7 -13 -15z"/>
<path d="M3625 2400 c-39 -8 -38 -8 12 -6 29 0 53 4 53 9 0 8 -7 8 -65 -3z"/>
<path d="M2861 2384 c0 -11 3 -14 6 -6 3 7 2 16 -1 19 -3 4 -6 -2 -5 -13z"/>
<path d="M2290 2386 c0 -2 7 -7 16 -10 8 -3 12 -2 9 4 -6 10 -25 14 -25 6z"/>
<path d="M3528 2383 c6 -2 18 -2 25 0 6 3 1 5 -13 5 -14 0 -19 -2 -12 -5z"/>
<path d="M1938 2373 c7 -3 16 -2 19 1 4 3 -2 6 -13 5 -11 0 -14 -3 -6 -6z"/>
<path d="M3635 2355 c-22 -14 -36 -25 -31 -25 10 0 76 40 76 46 0 6 -2 5 -45
-21z"/>
<path d="M2708 2363 c7 -3 16 -2 19 1 4 3 -2 6 -13 5 -11 0 -14 -3 -6 -6z"/>
<path d="M3168 2358 c22 -8 108 -8 147 1 18 5 -10 7 -67 7 -54 -1 -90 -4 -80
-8z"/>
<path d="M2741 2357 c2 -1 13 -9 24 -17 19 -14 19 -14 6 3 -7 9 -18 17 -24 17
-6 0 -8 -1 -6 -3z"/>
<path d="M2360 2306 c0 -2 8 -10 18 -17 15 -13 16 -12 3 4 -13 16 -21 21 -21
13z"/>
<path d="M2223 2290 c2 -8 12 -16 23 -17 13 -2 15 -1 4 4 -8 3 -19 11 -23 17
-6 7 -7 6 -4 -4z"/>
<path d="M3379 2295 c-1 -3 -2 -9 -3 -13 -2 -12 -105 -102 -117 -102 -6 0 -7
5 -3 12 4 7 3 8 -5 4 -6 -4 -9 -11 -6 -16 3 -5 -3 -13 -12 -19 -16 -9 -15 -10
6 -11 13 0 21 3 18 6 -4 4 14 20 38 35 25 16 45 33 45 39 0 11 49 38 105 57
29 10 32 12 10 8 -16 -2 -41 -7 -55 -11 -20 -4 -22 -3 -10 5 10 7 11 11 3 11
-7 0 -14 -2 -14 -5z"/>
<path d="M3730 2277 c0 -2 15 -16 33 -33 l32 -29 -29 33 c-28 30 -36 37 -36
29z"/>
<path d="M2296 2263 c7 -4 14 -17 17 -28 5 -16 5 -15 4 4 -1 14 -9 26 -17 28
-10 3 -11 2 -4 -4z"/>
<path d="M2478 2253 c6 -2 18 -2 25 0 6 3 1 5 -13 5 -14 0 -19 -2 -12 -5z"/>
<path d="M2598 2243 c7 -3 16 -2 19 1 4 3 -2 6 -13 5 -11 0 -14 -3 -6 -6z"/>
<path d="M2640 2236 c0 -2 7 -7 16 -10 8 -3 12 -2 9 4 -6 10 -25 14 -25 6z"/>
<path d="M1056 2189 c6 -11 64 -42 69 -37 2 2 -14 13 -36 25 -21 12 -37 17
-33 12z"/>
<path d="M2485 2140 c11 -5 27 -9 35 -9 9 0 8 4 -5 9 -11 5 -27 9 -35 9 -9 0
-8 -4 5 -9z"/>
<path d="M3115 2140 l-20 -9 20 -1 c14 -2 11 -5 -10 -10 -27 -7 -28 -8 -5 -8
14 0 34 3 45 8 l20 9 -20 0 c-17 1 -17 3 -5 11 18 12 2 12 -25 0z"/>
<path d="M3180 2140 c-8 -5 -10 -10 -5 -10 6 0 17 5 25 10 8 5 11 10 5 10 -5
0 -17 -5 -25 -10z"/>
<path d="M1155 2131 c-17 -7 -16 -9 9 -15 16 -4 31 -5 34 -1 3 3 -2 5 -12 5
-9 0 -14 5 -11 10 7 11 7 11 -20 1z"/>
<path d="M1228 2123 c7 -3 16 -2 19 1 4 3 -2 6 -13 5 -11 0 -14 -3 -6 -6z"/>
<path d="M1235 2100 c17 -4 41 -8 55 -8 22 0 22 1 -5 8 -16 4 -41 8 -55 8 -22
0 -22 -1 5 -8z"/>
<path d="M3018 2103 c6 -2 18 -2 25 0 6 3 1 5 -13 5 -14 0 -19 -2 -12 -5z"/>
<path d="M2936 2089 c3 -5 -3 -9 -13 -10 -10 0 -13 -3 -7 -5 5 -2 28 2 50 10
l39 14 -37 0 c-21 0 -35 -4 -32 -9z"/>
<path d="M1608 2073 c6 -2 18 -2 25 0 6 3 1 5 -13 5 -14 0 -19 -2 -12 -5z"/>
<path d="M2627 2035 c3 -27 10 -59 14 -70 5 -12 6 3 2 35 -3 30 -9 62 -14 70
-5 9 -6 -6 -2 -35z"/>
<path d="M1433 2053 c9 -2 23 -2 30 0 6 3 -1 5 -18 5 -16 0 -22 -2 -12 -5z"/>
<path d="M1508 2043 c12 -2 32 -2 45 0 12 2 2 4 -23 4 -25 0 -35 -2 -22 -4z"/>
<path d="M3008 2033 c7 -3 16 -2 19 1 4 3 -2 6 -13 5 -11 0 -14 -3 -6 -6z"/>
<path d="M3208 2033 c6 -2 18 -2 25 0 6 3 1 5 -13 5 -14 0 -19 -2 -12 -5z"/>
<path d="M3268 2023 c7 -3 16 -2 19 1 4 3 -2 6 -13 5 -11 0 -14 -3 -6 -6z"/>
<path d="M2870 1990 c-9 -6 -10 -10 -3 -10 6 0 15 5 18 10 8 12 4 12 -15 0z"/>
<path d="M3400 1990 c8 -5 22 -9 30 -9 10 0 8 3 -5 9 -27 12 -43 12 -25 0z"/>
<path d="M3920 1967 c0 -2 26 -25 58 -50 32 -25 71 -66 87 -91 23 -37 31 -43
38 -30 5 8 5 23 1 32 -4 9 -7 26 -8 37 -1 15 -7 19 -23 17 -17 -2 -23 2 -23
17 0 23 -22 41 -28 23 -6 -18 -27 -14 -48 9 -18 20 -54 44 -54 36z"/>
<path d="M850 1956 c0 -2 9 -6 20 -9 11 -3 20 -1 20 4 0 5 -9 9 -20 9 -11 0
-20 -2 -20 -4z"/>
<path d="M928 1953 c7 -3 16 -2 19 1 4 3 -2 6 -13 5 -11 0 -14 -3 -6 -6z"/>
<path d="M809 1948 c-6 -21 -5 -37 2 -32 5 3 7 9 4 14 -3 4 1 11 7 13 10 4 10
6 1 6 -7 1 -13 0 -14 -1z"/>
<path d="M960 1946 c0 -2 7 -7 16 -10 8 -3 12 -2 9 4 -6 10 -25 14 -25 6z"/>
<path d="M1032 1883 c18 -28 35 -49 37 -47 5 4 -37 70 -54 84 -9 7 -1 -10 17
-37z"/>
<path d="M2478 1903 c7 -3 16 -2 19 1 4 3 -2 6 -13 5 -11 0 -14 -3 -6 -6z"/>
<path d="M2770 1900 c-8 -5 -26 -10 -40 -10 -19 0 -22 -2 -10 -10 17 -11 20
-8 -54 -43 -32 -15 -57 -30 -54 -32 4 -5 110 48 130 64 7 7 22 18 33 26 22 16
18 20 -5 5z"/>
<path d="M2428 1893 c6 -2 18 -2 25 0 6 3 1 5 -13 5 -14 0 -19 -2 -12 -5z"/>
<path d="M1593 1883 c15 -2 37 -2 50 0 12 2 0 4 -28 4 -27 0 -38 -2 -22 -4z"/>
<path d="M3901 1879 c-2 -23 55 -84 119 -127 38 -26 58 -49 66 -71 8 -25 12
-30 17 -17 4 11 -5 30 -28 55 -19 21 -35 44 -35 51 0 7 -8 10 -19 7 -11 -3
-29 5 -45 20 -20 19 -25 30 -20 50 6 24 5 25 -19 19 -19 -4 -27 -2 -30 11 -4
15 -5 15 -6 2z"/>
<path d="M1483 1873 c9 -2 25 -2 35 0 9 3 1 5 -18 5 -19 0 -27 -2 -17 -5z"/>
<path d="M2318 1873 c6 -2 18 -2 25 0 6 3 1 5 -13 5 -14 0 -19 -2 -12 -5z"/>
<path d="M2268 1863 c6 -2 18 -2 25 0 6 3 1 5 -13 5 -14 0 -19 -2 -12 -5z"/>
<path d="M2408 1863 c6 -2 18 -2 25 0 6 3 1 5 -13 5 -14 0 -19 -2 -12 -5z"/>
<path d="M957 1846 c-4 -10 -3 -15 3 -11 6 3 10 1 10 -6 0 -7 3 -10 6 -6 3 3
2 13 -4 22 -8 16 -9 16 -15 1z"/>
<path d="M1398 1853 c7 -3 16 -2 19 1 4 3 -2 6 -13 5 -11 0 -14 -3 -6 -6z"/>
<path d="M2218 1853 c6 -2 18 -2 25 0 6 3 1 5 -13 5 -14 0 -19 -2 -12 -5z"/>
<path d="M2315 1850 c-27 -7 -27 -8 -5 -8 14 0 39 4 55 8 27 7 27 8 5 8 -14 0
-38 -4 -55 -8z"/>
<path d="M2635 1850 c-3 -6 1 -7 9 -4 18 7 21 14 7 14 -6 0 -13 -4 -16 -10z"/>
<path d="M2178 1843 c7 -3 16 -2 19 1 4 3 -2 6 -13 5 -11 0 -14 -3 -6 -6z"/>
<path d="M1238 1833 c17 -2 47 -2 65 0 17 2 3 4 -33 4 -36 0 -50 -2 -32 -4z"/>
<path d="M2118 1833 c6 -2 18 -2 25 0 6 3 1 5 -13 5 -14 0 -19 -2 -12 -5z"/>
<path d="M2215 1830 c-27 -7 -27 -8 -5 -8 14 0 36 4 50 8 20 6 21 8 5 8 -11 0
-33 -4 -50 -8z"/>
<path d="M2563 1805 c-28 -19 -55 -39 -58 -46 -6 -9 83 49 110 73 21 19 -4 6
-52 -27z"/>
<path d="M2688 1818 c-15 -12 -42 -22 -60 -22 -23 -1 -62 -21 -126 -64 -51
-34 -89 -62 -84 -62 5 0 45 24 89 54 70 48 88 55 149 62 38 4 61 10 51 12 -18
4 -18 5 -1 23 22 24 16 23 -18 -3z"/>
<path d="M1070 1804 c0 -10 5 -26 10 -34 8 -11 9 -7 4 15 -8 37 -14 45 -14 19z"/>
<path d="M2018 1813 c7 -3 16 -2 19 1 4 3 -2 6 -13 5 -11 0 -14 -3 -6 -6z"/>
<path d="M1963 1803 c9 -2 23 -2 30 0 6 3 -1 5 -18 5 -16 0 -22 -2 -12 -5z"/>
<path d="M3228 1803 c6 -2 18 -2 25 0 6 3 1 5 -13 5 -14 0 -19 -2 -12 -5z"/>
<path d="M3158 1793 c6 -2 18 -2 25 0 6 3 1 5 -13 5 -14 0 -19 -2 -12 -5z"/>
<path d="M3108 1783 c6 -2 18 -2 25 0 6 3 1 5 -13 5 -14 0 -19 -2 -12 -5z"/>
<path d="M976 1765 c-3 -9 -6 -24 -5 -33 0 -9 5 -4 10 12 9 32 6 48 -5 21z"/>
<path d="M3035 1770 c-13 -5 -14 -9 -5 -9 8 0 24 4 35 9 13 5 14 9 5 9 -8 0
-24 -4 -35 -9z"/>
<path d="M1148 1763 c6 -2 18 -2 25 0 6 3 1 5 -13 5 -14 0 -19 -2 -12 -5z"/>
<path d="M1218 1763 c7 -3 16 -2 19 1 4 3 -2 6 -13 5 -11 0 -14 -3 -6 -6z"/>
<path d="M4100 1760 c0 -4 7 -14 17 -21 12 -11 17 -11 20 -2 3 7 3 16 1 20 -4
9 -38 12 -38 3z"/>
<path d="M2980 1750 c-8 -5 -10 -10 -5 -10 6 0 17 5 25 10 8 5 11 10 5 10 -5
0 -17 -5 -25 -10z"/>
<path d="M991 1717 c-1 -10 -5 -15 -11 -12 -5 3 -10 1 -10 -6 0 -7 -8 -22 -17
-33 -9 -12 -2 -7 16 10 19 18 31 38 28 45 -4 10 -6 8 -6 -4z"/>
<path d="M2915 1720 c-3 -6 1 -7 9 -4 18 7 21 14 7 14 -6 0 -13 -4 -16 -10z"/>
<path d="M1019 1703 c-13 -16 -12 -17 4 -4 9 7 17 15 17 17 0 8 -8 3 -21 -13z"/>
<path d="M881 1694 c0 -11 3 -14 6 -6 3 7 2 16 -1 19 -3 4 -6 -2 -5 -13z"/>
<path d="M2875 1700 c-3 -6 1 -7 9 -4 18 7 21 14 7 14 -6 0 -13 -4 -16 -10z"/>
<path d="M2358 1683 c7 -3 16 -2 19 1 4 3 -2 6 -13 5 -11 0 -14 -3 -6 -6z"/>
<path d="M4048 1667 c22 -24 30 -43 13 -32 -12 7 -43 -24 -38 -39 6 -18 32
-12 31 7 -1 10 0 16 3 13 3 -3 11 1 18 7 10 10 9 17 -7 40 -11 15 -24 27 -30
27 -7 0 -2 -10 10 -23z"/>
<path d="M2303 1673 c9 -2 23 -2 30 0 6 3 -1 5 -18 5 -16 0 -22 -2 -12 -5z"/>
<path d="M2208 1663 c12 -2 30 -2 40 0 9 3 -1 5 -23 4 -22 0 -30 -2 -17 -4z"/>
<path d="M1264 1638 l-19 -23 23 19 c21 18 27 26 19 26 -2 0 -12 -10 -23 -22z"/>
<path d="M2103 1653 c15 -2 39 -2 55 0 15 2 2 4 -28 4 -30 0 -43 -2 -27 -4z"/>
<path d="M2423 1633 c9 -2 23 -2 30 0 6 3 -1 5 -18 5 -16 0 -22 -2 -12 -5z"/>
<path d="M2653 1633 c9 -2 23 -2 30 0 6 3 -1 5 -18 5 -16 0 -22 -2 -12 -5z"/>
<path d="M2558 1623 c6 -2 18 -2 25 0 6 3 1 5 -13 5 -14 0 -19 -2 -12 -5z"/>
<path d="M1280 1566 c0 -2 8 -10 18 -17 15 -13 16 -12 3 4 -13 16 -21 21 -21
13z"/>
<path d="M1089 1513 c-13 -16 -12 -17 4 -4 9 7 17 15 17 17 0 8 -8 3 -21 -13z"/>
<path d="M1412 1265 c-68 -25 -108 -53 -136 -95 -37 -57 -50 -117 -36 -170 24
-90 164 -193 281 -207 46 -5 51 -4 48 12 -3 14 -14 19 -46 21 -44 2 -138 47
-185 89 -94 82 -89 205 12 283 87 66 242 51 317 -31 29 -33 34 -44 31 -80 -3
-42 -3 -42 -45 -45 -34 -3 -44 1 -53 17 -7 15 -8 27 0 40 16 30 -9 39 -32 11
-49 -60 46 -135 125 -99 57 26 57 112 1 178 -59 68 -198 106 -282 76z"/>
<path d="M3553 1244 c-29 -12 -57 -79 -62 -147 l-6 -70 -43 37 c-47 39 -57 42
-68 25 -4 -7 11 -26 37 -48 24 -19 84 -74 132 -120 69 -67 90 -82 97 -71 6 10
-5 29 -45 71 -60 63 -80 115 -73 191 10 98 65 127 131 69 37 -33 81 -116 96
-180 11 -50 17 -59 32 -44 17 17 -6 108 -47 180 -47 85 -124 130 -181 107z"/>
<path d="M1797 1163 c-3 -5 -12 -40 -21 -80 -23 -102 -62 -224 -102 -314 -19
-42 -34 -84 -34 -93 0 -24 29 -19 39 7 26 67 77 163 103 193 33 38 79 51 121
35 64 -24 58 -106 -13 -214 -45 -66 -48 -77 -22 -77 20 0 71 72 103 144 45
103 -2 186 -105 186 -32 0 -61 -6 -76 -17 -23 -16 -23 -16 -16 3 18 43 56 209
52 221 -6 14 -22 17 -29 6z"/>
<path d="M2236 988 c-25 -86 -37 -186 -39 -324 -2 -109 0 -129 13 -129 12 0
16 26 22 150 3 83 14 184 24 225 21 93 22 122 7 127 -7 3 -18 -16 -27 -49z"/>
<path d="M3195 1012 c-57 -31 -80 -66 -93 -140 -8 -45 -6 -58 11 -93 26 -53
85 -92 140 -93 66 -1 137 39 164 93 12 24 20 48 17 52 -11 18 -34 8 -40 -16
-14 -55 -109 -108 -162 -91 -28 9 -70 43 -83 68 -10 19 -9 19 20 13 81 -18
221 79 221 153 0 11 -12 34 -26 51 -22 27 -32 31 -72 31 -32 0 -63 -9 -97 -28z
m133 -18 c76 -53 -76 -185 -172 -148 -20 8 -20 46 0 85 10 20 33 39 67 55 61
28 75 29 105 8z"/>
<path d="M2632 1023 c-25 -10 -43 -65 -49 -149 -6 -78 -7 -83 -23 -69 -23 21
-98 29 -147 16 -49 -13 -98 -66 -107 -116 -11 -56 13 -136 50 -171 66 -63 138
-53 219 32 l52 54 18 -41 c32 -70 104 -113 113 -68 2 11 -6 19 -22 23 -26 6
-69 69 -81 117 -4 15 2 54 14 95 57 187 41 308 -37 277z m33 -126 c-4 -34 -12
-80 -18 -101 -11 -37 -12 -38 -18 -15 -14 50 -10 164 7 188 15 21 18 22 26 7
6 -10 7 -45 3 -79z m-121 -124 c22 -10 42 -30 52 -52 16 -34 16 -36 -7 -80
-24 -46 -85 -97 -127 -108 -84 -21 -154 107 -107 197 30 57 118 77 189 43z"/>
<path d="M2125 1010 c-8 -14 3 -30 21 -30 8 0 14 9 14 20 0 21 -24 28 -35 10z"/>
<path d="M2965 963 c-11 -3 -44 -21 -73 -39 l-53 -34 -24 27 c-21 25 -24 26
-30 11 -4 -11 2 -32 16 -54 20 -33 21 -40 10 -71 -26 -70 13 -233 58 -248 11
-3 29 -1 41 5 29 16 26 63 -15 187 -19 59 -32 110 -29 115 14 22 89 68 110 68
13 0 28 -9 34 -20 15 -28 40 -26 40 4 0 36 -41 59 -85 49z m-78 -329 c3 -24 3
-44 0 -44 -24 0 -63 133 -49 169 7 18 41 -68 49 -125z"/>
<path d="M2086 902 c-16 -26 -36 -146 -36 -219 0 -90 5 -113 26 -113 12 0 14
13 9 73 -5 51 -2 93 10 147 9 41 18 84 18 94 2 20 -17 33 -27 18z"/>
</g>
</svg>
