<svg xmlns="http://www.w3.org/2000/svg" width="133.173" height="72.464" viewBox="0 0 133.173 72.464"><path d="M2.874,215.676a3.588,3.588,0,0,1,2.172-.586,4.6,4.6,0,0,1,2.107.416,2.661,2.661,0,0,1,1.223,1.431l1.405-.6a3.747,3.747,0,0,0-.95-1.431,4.418,4.418,0,0,0-1.536-.923,5.892,5.892,0,0,0-2.017-.325,5.43,5.43,0,0,0-3.576,1,3.465,3.465,0,0,0-1.185,2.8,2.717,2.717,0,0,0,.95,2.016,6.2,6.2,0,0,0,2.693,1.366l1.275.338a5.308,5.308,0,0,1,2.082.963,1.93,1.93,0,0,1,.7,1.535,1.786,1.786,0,0,1-.962,1.613,4.508,4.508,0,0,1-2.342.573,4,4,0,0,1-2.095-.586A3.488,3.488,0,0,1,1.4,223.729l-1.4.521a4.081,4.081,0,0,0,.923,1.457,4.949,4.949,0,0,0,1.731,1.145,6.633,6.633,0,0,0,2.549.442,5.912,5.912,0,0,0,2.355-.442,3.762,3.762,0,0,0,1.626-1.288,3.4,3.4,0,0,0,.6-2.016,3.035,3.035,0,0,0-.481-1.665,4.536,4.536,0,0,0-1.38-1.34,6.986,6.986,0,0,0-2.173-.9l-1.118-.286a4.721,4.721,0,0,1-1.912-.9,1.552,1.552,0,0,1-.638-1.132,1.934,1.934,0,0,1,.794-1.652Z" transform="translate(0 -160.033)" fill="#fff"/><path d="M59.678,217.029a5.649,5.649,0,0,0-1.965-2.472,5.343,5.343,0,0,0-3.135-.9,5.981,5.981,0,0,0-5.465,3.278,7.51,7.51,0,0,0-.805,3.539,7.4,7.4,0,0,0,.82,3.539,6.113,6.113,0,0,0,2.263,2.407,6.3,6.3,0,0,0,3.317.871,6.474,6.474,0,0,0,2.368-.416,5.753,5.753,0,0,0,1.86-1.158,6.17,6.17,0,0,0,1.288-1.7l-1.3-.807a5.187,5.187,0,0,1-1.652,1.912,4.345,4.345,0,0,1-2.563.742,4.807,4.807,0,0,1-2.563-.677,4.421,4.421,0,0,1-1.7-1.951,6.851,6.851,0,0,1-.577-2.576h10.49a9.126,9.126,0,0,0-.676-3.63Zm-9.081.26a4.475,4.475,0,0,1,1.679-1.613,4.662,4.662,0,0,1,2.3-.586,3.789,3.789,0,0,1,3.6,2.212,5.207,5.207,0,0,1,.485,1.925H50a4.381,4.381,0,0,1,.6-1.938Z" transform="translate(-36.184 -160.033)" fill="#fff"/><rect width="1.561" height="18.213" transform="translate(27.034 48.735)" fill="#fff"/><path d="M129.34,194.981a1.772,1.772,0,0,1,1.482-.625,2.814,2.814,0,0,1,.742.13q.455.13,1.132.39l.573-1.327a11.444,11.444,0,0,0-1.328-.468,3.83,3.83,0,0,0-.989-.156,3.6,3.6,0,0,0-2.757.976,4.233,4.233,0,0,0-.912,2.979v1.561h-2.471v1.431h2.471v11.579h1.561V199.872h3.981v-1.431h-3.981V196.88A3.027,3.027,0,0,1,129.34,194.981Z" transform="translate(-93.486 -144.503)" fill="#fff"/><path d="M192.479,215.676a3.588,3.588,0,0,1,2.172-.586,4.6,4.6,0,0,1,2.107.416,2.661,2.661,0,0,1,1.223,1.431l1.405-.6a3.747,3.747,0,0,0-.95-1.431,4.418,4.418,0,0,0-1.536-.923,5.891,5.891,0,0,0-2.017-.325,5.431,5.431,0,0,0-3.576,1,3.465,3.465,0,0,0-1.185,2.8,2.717,2.717,0,0,0,.95,2.016,6.2,6.2,0,0,0,2.693,1.366l1.275.338a5.308,5.308,0,0,1,2.082.963,1.93,1.93,0,0,1,.7,1.535,1.786,1.786,0,0,1-.962,1.613,4.508,4.508,0,0,1-2.342.573,4,4,0,0,1-2.095-.586,3.487,3.487,0,0,1-1.418-1.548l-1.4.521a4.079,4.079,0,0,0,.923,1.457,4.948,4.948,0,0,0,1.731,1.145,6.633,6.633,0,0,0,2.549.442,5.911,5.911,0,0,0,2.355-.442,3.761,3.761,0,0,0,1.626-1.288,3.4,3.4,0,0,0,.6-2.016,3.035,3.035,0,0,0-.481-1.665,4.536,4.536,0,0,0-1.38-1.34,6.986,6.986,0,0,0-2.173-.9l-1.118-.286a4.721,4.721,0,0,1-1.912-.9,1.552,1.552,0,0,1-.638-1.132,1.934,1.934,0,0,1,.794-1.652Z" transform="translate(-142.015 -160.033)" fill="#fff"/><path d="M242.071,214.589a2.091,2.091,0,0,1-.611.091,2.281,2.281,0,0,1-1.666-.586,2.172,2.172,0,0,1-.6-1.626V204.22h4.137v-1.431H239.2V198.73h-1.561v4.059h-2.315v1.431h2.315v8.248a3.507,3.507,0,0,0,1.015,2.693,4.474,4.474,0,0,0,3.773.833,4.69,4.69,0,0,0,1.17-.534l-.651-1.353a3.7,3.7,0,0,1-.87.482Z" transform="translate(-176.256 -148.851)" fill="#fff"/><path d="M279.018,214.769a6.025,6.025,0,0,0-2.152,2.337,7.51,7.51,0,0,0-.805,3.539,7.4,7.4,0,0,0,.819,3.539,6.113,6.113,0,0,0,2.263,2.407,6.3,6.3,0,0,0,3.318.871,6.175,6.175,0,0,0,3.278-.871,6.04,6.04,0,0,0,2.238-2.407,8.164,8.164,0,0,0,0-7.077,5.994,5.994,0,0,0-4.647-3.222l-1.991.457a14.615,14.615,0,0,1-2.32.428Zm5.888,1.179a4.7,4.7,0,0,1,1.7,1.9,6.7,6.7,0,0,1,0,5.594,4.767,4.767,0,0,1-1.679,1.9,4.449,4.449,0,0,1-2.471.69,4.581,4.581,0,0,1-2.5-.69,4.785,4.785,0,0,1-1.717-1.9,6.017,6.017,0,0,1-.624-2.8,6.114,6.114,0,0,1,.611-2.8,4.717,4.717,0,0,1,1.691-1.9,4.514,4.514,0,0,1,2.484-.69,4.585,4.585,0,0,1,2.5.69Z" transform="translate(-206.772 -160.201)" fill="#fff"/><path d="M340.749,217.052v-2.3h-1.561v13.01h1.561v-7.285a4.388,4.388,0,0,1,.677-2.589,3.723,3.723,0,0,1,1.731-1.353,6.092,6.092,0,0,1,2.2-.4V214.7a6.037,6.037,0,0,0-2.666.611,4.84,4.84,0,0,0-1.939,1.745Z" transform="translate(-254.055 -160.809)" fill="#fff"/><path d="M377.471,214.362a5.434,5.434,0,0,0-2.887-.7,5.742,5.742,0,0,0-1.9.3,4.7,4.7,0,0,0-1.548.9,6.006,6.006,0,0,0-1.235,1.535l1.4.625a3.549,3.549,0,0,1,1.315-1.457,3.8,3.8,0,0,1,1.965-.469,3.575,3.575,0,0,1,2.068.546,3.165,3.165,0,0,1,1.17,1.626,7.373,7.373,0,0,1,.356,1.991h-3.854a5.454,5.454,0,0,0-3.578,1.067,3.669,3.669,0,0,0-1.288,2.992,3.571,3.571,0,0,0,1.288,2.927,5.5,5.5,0,0,0,3.578,1.054,4.222,4.222,0,0,0,3.526-1.613,5.237,5.237,0,0,0,.357-.563l.124,1.864h1.431v-6.973a9.454,9.454,0,0,0-.572-3.539,4.275,4.275,0,0,0-1.718-2.107Zm.26,9.5a3.269,3.269,0,0,1-1.366,1.5,4.3,4.3,0,0,1-2.147.507,3.669,3.669,0,0,1-2.354-.677,2.262,2.262,0,0,1-.846-1.874,2.394,2.394,0,0,1,.819-1.938,4.183,4.183,0,0,1,2.693-.69H378.2v.729a5.686,5.686,0,0,1-.469,2.446Z" transform="translate(-276.727 -160.033)" fill="#fff"/><path d="M431.857,216.252a5.594,5.594,0,0,0-1.652-1.747,5.142,5.142,0,0,0-2.928-.845,5.545,5.545,0,0,0-3.044.845,5.827,5.827,0,0,0-2.08,2.329,7.47,7.47,0,0,0-.754,3.435,7.714,7.714,0,0,0,.754,3.474,5.856,5.856,0,0,0,2.08,2.381,5.478,5.478,0,0,0,3.044.859,5.082,5.082,0,0,0,2.928-.859,5.6,5.6,0,0,0,1.652-1.784v1.445a6.524,6.524,0,0,1-.611,3.019,3.878,3.878,0,0,1-1.679,1.717,5.237,5.237,0,0,1-2.42.546,7.807,7.807,0,0,1-1.756-.195,8.761,8.761,0,0,1-1.482-.469,9.254,9.254,0,0,1-.95-.455l-.573,1.3q.26.13.937.429a11.228,11.228,0,0,0,1.666.559,8.471,8.471,0,0,0,2.158.26,6.849,6.849,0,0,0,3.149-.729,5.413,5.413,0,0,0,2.276-2.225,7.561,7.561,0,0,0,.846-3.76V213.972h-1.561v2.28Zm-.546,6.775a4.628,4.628,0,0,1-1.509,1.886,3.706,3.706,0,0,1-2.212.69,4.229,4.229,0,0,1-2.393-.69,4.775,4.775,0,0,1-1.641-1.886,6.643,6.643,0,0,1-.013-5.477,4.6,4.6,0,0,1,1.626-1.86,4.3,4.3,0,0,1,2.395-.677,3.8,3.8,0,0,1,2.238.677,4.554,4.554,0,0,1,1.509,1.86,6.433,6.433,0,0,1,.546,2.719,6.588,6.588,0,0,1-.546,2.758Z" transform="translate(-315.631 -160.033)" fill="#fff"/><path d="M493.1,217.029a5.648,5.648,0,0,0-1.965-2.472,5.343,5.343,0,0,0-3.135-.9,5.981,5.981,0,0,0-5.465,3.278,7.51,7.51,0,0,0-.805,3.539,7.4,7.4,0,0,0,.819,3.539,6.113,6.113,0,0,0,2.263,2.407,6.3,6.3,0,0,0,3.318.871,6.473,6.473,0,0,0,2.368-.416,5.753,5.753,0,0,0,1.86-1.158,6.17,6.17,0,0,0,1.288-1.7l-1.3-.807a5.185,5.185,0,0,1-1.652,1.912,4.345,4.345,0,0,1-2.563.742,4.807,4.807,0,0,1-2.563-.677,4.421,4.421,0,0,1-1.7-1.951,6.851,6.851,0,0,1-.577-2.576h10.49a9.126,9.126,0,0,0-.677-3.63Zm-9.081.26a4.475,4.475,0,0,1,1.679-1.613,4.663,4.663,0,0,1,2.3-.586,3.79,3.79,0,0,1,3.6,2.212,5.208,5.208,0,0,1,.485,1.925h-8.666a4.381,4.381,0,0,1,.6-1.938Z" transform="translate(-360.819 -160.033)" fill="#fff"/><rect width="8.592" height="42.138" transform="translate(0)" fill="#fff"/><path d="M71.307,83.933V59.194c0-2.283-1.128-3.393-3.449-3.393a20.7,20.7,0,0,0-3.023.332l-6.4,1.119V55.858H49.951V83.933H58.43V62.53h4.4v21.4h8.479Z" transform="translate(-37.414 -41.796)" fill="#fff"/><path d="M163.18,42.138h8.479V0H163.18V14.062h-7.507c-3.713,0-5.369,1.516-5.369,4.917V38.068c0,2.815,1.442,4.183,4.409,4.183a15.837,15.837,0,0,0,2.976-.378l.032-.007,5.459-1.079v1.352ZM160.669,35.4a3.22,3.22,0,0,1-.761.063,1.1,1.1,0,0,1-1.126-1.295V22.085c0-1,.368-1.351,1.408-1.351h2.989V35.063l-2.511.339Z" transform="translate(-112.579)" fill="#fff"/><path d="M251.377,160.093c-.025-.072-.042-.152-.063-.229C251.335,159.941,251.353,160.021,251.377,160.093Z" transform="translate(-188.237 -119.74)" fill="#fff"/><path d="M283.54,82.609h4.4v13.2h0v-13.2Z" transform="translate(-212.374 -61.875)" fill="#fff"/><path d="M327.377,164.68a2.6,2.6,0,0,1-1.09.609A2.6,2.6,0,0,0,327.377,164.68Z" transform="translate(-244.392 -123.347)" fill="#fff"/><path d="M253.752,164.383a2.186,2.186,0,0,1-.242-.237A2.168,2.168,0,0,0,253.752,164.383Z" transform="translate(-189.881 -122.947)" fill="#fff"/><path d="M252.527,162.81a2.29,2.29,0,0,1-.173-.251A2.284,2.284,0,0,0,252.527,162.81Z" transform="translate(-189.015 -121.758)" fill="#fff"/><path d="M331.695,154.369h0a3.53,3.53,0,0,1-.753,2.488A3.53,3.53,0,0,0,331.695,154.369Z" transform="translate(-247.879 -115.624)" fill="#fff"/><path d="M250.862,157.522c-.012-.074-.024-.148-.032-.226C250.838,157.374,250.85,157.448,250.862,157.522Z" transform="translate(-187.873 -117.817)" fill="#fff"/><path d="M370.111,80.71V59.419c0-2.378-1.048-3.392-3.505-3.392H352.769c-2.53,0-3.562.983-3.562,3.392V80.71c0,2.41,1.032,3.393,3.562,3.393h13.836C369.063,84.1,370.111,83.088,370.111,80.71Zm-8.253-3.28h-4.4V62.7h4.4Z" transform="translate(-261.559 -41.964)" fill="#fff"/><path d="M465.1,55.8a21.357,21.357,0,0,0-3.023.332l-5.839,1.13V55.858h-8.479V83.933h8.479V62.53h3.832v7.4h8.479V59.194c0-2.315-1.1-3.393-3.449-3.393Z" transform="translate(-335.374 -41.796)" fill="#fff"/><path d="M287.987,148.469l-.3-1.288a6.969,6.969,0,0,0-.971-2.839,2.845,2.845,0,0,0-1.495-.926,2.049,2.049,0,0,0-.269-.046l-.03-.133c-.189.015-.375.033-.584.033h-1.555l.091.4-7.251,1.664-.472-2.06-.373-1.627a3.563,3.563,0,0,1,.371-2.993,4.192,4.192,0,0,1,2.442-1.38,4.787,4.787,0,0,1,2-.081v-2.125a7.211,7.211,0,0,0-2.468.167,7.6,7.6,0,0,0-1.929.712,5.165,5.165,0,0,0-1.727,1.465,5.531,5.531,0,0,0-.726,4.7l.266,1.16.619,2.7a2.049,2.049,0,0,0-.222.159,2.845,2.845,0,0,0-.941,1.485,6.97,6.97,0,0,0,.364,2.978l.3,1.288a6.969,6.969,0,0,0,.971,2.839,2.845,2.845,0,0,0,1.495.926,2.4,2.4,0,0,0,.687.055,14.614,14.614,0,0,0,2.32-.428l1.991-.457,3.954-.907a7.168,7.168,0,0,0,2.868-.975,2.845,2.845,0,0,0,.941-1.485,6.97,6.97,0,0,0-.364-2.978Zm-6.665,2.936a.959.959,0,0,1-.919.211c-.5-.311-.667-1.787-.722-2.643a1.077,1.077,0,0,1-.7-.776,1.094,1.094,0,0,1,2.132-.489,1.077,1.077,0,0,1-.293,1C281.143,149.507,281.637,150.907,281.321,151.405Z" transform="translate(-204.031 -101.132)" fill="#f59d24"/><path d="M268.055,56.026H254.219c-2.53,0-3.562.983-3.562,3.392V80.71a6.5,6.5,0,0,0,.043.735c.009.078.021.152.032.226a4.044,4.044,0,0,0,.089.419c.021.077.038.157.063.229a2.739,2.739,0,0,0,.2.447,2.287,2.287,0,0,0,.173.251c.038.05.076.1.117.147a2.19,2.19,0,0,0,.242.237c.021.017.045.031.066.048a2.6,2.6,0,0,0,.422.254c.054.027.112.05.169.074s.095.046.147.064l.007-.01a5.238,5.238,0,0,0,1.792.272h2.5l-.266-1.16a5.531,5.531,0,0,1,.726-4.7,5.164,5.164,0,0,1,1.727-1.465V62.7h4.4V78.02a4.787,4.787,0,0,0-2,.081,4.193,4.193,0,0,0-2.442,1.38,3.563,3.563,0,0,0-.371,2.993l.373,1.627h9.187c.21,0,.395-.018.584-.033a4.947,4.947,0,0,0,1-.163,2.6,2.6,0,0,0,1.09-.609c.03-.029.05-.069.078-.1a3.53,3.53,0,0,0,.753-2.488V59.419c0-2.378-1.048-3.392-3.505-3.392Z" transform="translate(-187.745 -41.964)" fill="#fff"/></svg>